<svg xmlns="http://www.w3.org/2000/svg" xmlns:xlink="http://www.w3.org/1999/xlink" version="1.1" data-diagram-type="SEQUENCE" style="width:1049px;height:551px;background:#FFFFFF;" width="1049px" height="551px" viewBox="0 0 1049 551" zoomAndPan="magnify" preserveAspectRatio="none" contentStyleType="text/css"><?plantuml 1.2026.7beta5?><defs/><g font-family="sans-serif" lengthAdjust="spacing"><g class="title" data-source-line="1"><text x="265.809" y="27.995" fill="#000" font-size="14" textLength="511.239" font-weight="700">CI/CD — de push a main a contenedores corriendo en producción</text></g><g><title>GitHub Actions</title><rect x="188.666" y="149.727" width="10" height="100.398" fill="#FFF" style="stroke:#181818;stroke-width:1;"/></g><g><title>GitHub Actions</title><rect x="596.686" y="279.258" width="10" height="164.664" fill="#FFF" style="stroke:#181818;stroke-width:1;"/></g><g><title>VPS de producci.n</title><rect x="860.06" y="308.391" width="10" height="135.531" fill="#FFF" style="stroke:#181818;stroke-width:1;"/></g><g class="participant-lifeline" data-qualified-name="Dev" data-entity-uid="part1" id="part1-lifeline" data-source-line="3"><g><title>Desarrollador</title><rect x="51.455" y="118.594" width="8" height="350.328" fill="#000" fill-opacity="0"/><line x1="55" y1="118.594" x2="55" y2="468.922" style="stroke:#181818;stroke-width:0.5;stroke-dasharray:5,5;"/></g></g><g class="participant-lifeline" data-qualified-name="Build" data-entity-uid="part2" id="part2-lifeline" data-source-line="4"><g><title>GitHub Actions</title><rect x="189.666" y="118.594" width="8" height="350.328" fill="#000" fill-opacity="0"/><line x1="192.91" y1="118.594" x2="192.91" y2="468.922" style="stroke:#181818;stroke-width:0.5;stroke-dasharray:5,5;"/></g></g><g class="participant-lifeline" data-qualified-name="GHCR" data-entity-uid="part3" id="part3-lifeline" data-source-line="5"><g><title>GHCR</title><rect x="491.989" y="118.594" width="8" height="350.328" fill="#000" fill-opacity="0"/><line x1="495.468" y1="118.594" x2="495.468" y2="468.922" style="stroke:#181818;stroke-width:0.5;stroke-dasharray:5,5;"/></g></g><g class="participant-lifeline" data-qualified-name="Deploy" data-entity-uid="part4" id="part4-lifeline" data-source-line="6"><g><title>GitHub Actions</title><rect x="597.686" y="118.594" width="8" height="350.328" fill="#000" fill-opacity="0"/><line x1="601.51" y1="118.594" x2="601.51" y2="468.922" style="stroke:#181818;stroke-width:0.5;stroke-dasharray:5,5;"/></g></g><g class="participant-lifeline" data-qualified-name="VPS" data-entity-uid="part5" id="part5-lifeline" data-source-line="7"><g><title>VPS de producci.n</title><rect x="861.06" y="118.594" width="8" height="350.328" fill="#000" fill-opacity="0"/><line x1="864.562" y1="118.594" x2="864.562" y2="468.922" style="stroke:#181818;stroke-width:0.5;stroke-dasharray:5,5;"/></g></g><g class="participant participant-head" data-qualified-name="Dev" data-entity-uid="part1" id="part1-head" data-source-line="3"><text x="5" y="115.292" fill="#000" font-size="14" textLength="94.91">Desarrollador</text><ellipse cx="55.455" cy="50.797" rx="8" ry="8" fill="#E2E2F0" style="stroke:#181818;stroke-width:0.5;"/><path d="M55.455,58.797 L55.455,85.797 M42.455,66.797 L68.455,66.797 M55.455,85.797 L42.455,100.797 M55.455,85.797 L68.455,100.797" style="stroke:#181818;stroke-width:0.5;" fill="none"/></g><g class="participant participant-tail" data-qualified-name="Dev" data-entity-uid="part1" id="part1-tail" data-source-line="3"><text x="5" y="480.917" fill="#000" font-size="14" textLength="94.91">Desarrollador</text><ellipse cx="55.455" cy="492.719" rx="8" ry="8" fill="#E2E2F0" style="stroke:#181818;stroke-width:0.5;"/><path d="M55.455,500.719 L55.455,527.719 M42.455,508.719 L68.455,508.719 M55.455,527.719 L42.455,542.719 M55.455,527.719 L68.455,542.719" style="stroke:#181818;stroke-width:0.5;" fill="none"/></g><g class="participant participant-head" data-qualified-name="Build" data-entity-uid="part2" id="part2-head" data-source-line="4"><rect x="115.91" y="71" width="155.511" height="46.594" fill="#E2E2F0" style="stroke:#181818;stroke-width:0.5;" rx="2.5" ry="2.5"/><text x="141.49" y="90.995" fill="#000" font-size="14" textLength="104.351">GitHub Actions</text><text x="122.91" y="107.292" fill="#000" font-size="14" textLength="141.511">(job build-and-push)</text></g><g class="participant participant-tail" data-qualified-name="Build" data-entity-uid="part2" id="part2-tail" data-source-line="4"><rect x="115.91" y="467.922" width="155.511" height="46.594" fill="#E2E2F0" style="stroke:#181818;stroke-width:0.5;" rx="2.5" ry="2.5"/><text x="141.49" y="487.917" fill="#000" font-size="14" textLength="104.351">GitHub Actions</text><text x="122.91" y="504.214" fill="#000" font-size="14" textLength="141.511">(job build-and-push)</text></g><g class="participant participant-head" data-qualified-name="GHCR" data-entity-uid="part3" id="part3-head" data-source-line="5"><rect x="459.468" y="71" width="73.042" height="46.594" fill="#E2E2F0" style="stroke:#181818;stroke-width:0.5;" rx="2.5" ry="2.5"/><text x="475.55" y="90.995" fill="#000" font-size="14" textLength="40.879">GHCR</text><text x="466.468" y="107.292" fill="#000" font-size="14" textLength="59.042">(ghcr.io)</text></g><g class="participant participant-tail" data-qualified-name="GHCR" data-entity-uid="part3" id="part3-tail" data-source-line="5"><rect x="459.468" y="467.922" width="73.042" height="46.594" fill="#E2E2F0" style="stroke:#181818;stroke-width:0.5;" rx="2.5" ry="2.5"/><text x="475.55" y="487.917" fill="#000" font-size="14" textLength="40.879">GHCR</text><text x="466.468" y="504.214" fill="#000" font-size="14" textLength="59.042">(ghcr.io)</text></g><g class="participant participant-head" data-qualified-name="Deploy" data-entity-uid="part4" id="part4-head" data-source-line="6"><rect x="542.51" y="71" width="118.351" height="46.594" fill="#E2E2F0" style="stroke:#181818;stroke-width:0.5;" rx="2.5" ry="2.5"/><text x="549.51" y="90.995" fill="#000" font-size="14" textLength="104.351">GitHub Actions</text><text x="559.764" y="107.292" fill="#000" font-size="14" textLength="83.843">(job deploy)</text></g><g class="participant participant-tail" data-qualified-name="Deploy" data-entity-uid="part4" id="part4-tail" data-source-line="6"><rect x="542.51" y="467.922" width="118.351" height="46.594" fill="#E2E2F0" style="stroke:#181818;stroke-width:0.5;" rx="2.5" ry="2.5"/><text x="549.51" y="487.917" fill="#000" font-size="14" textLength="104.351">GitHub Actions</text><text x="559.764" y="504.214" fill="#000" font-size="14" textLength="83.843">(job deploy)</text></g><g class="participant participant-head" data-qualified-name="VPS" data-entity-uid="part5" id="part5-head" data-source-line="7"><rect x="792.562" y="87.297" width="144.997" height="30.297" fill="#E2E2F0" style="stroke:#181818;stroke-width:0.5;" rx="2.5" ry="2.5"/><text x="799.562" y="107.292" fill="#000" font-size="14" textLength="130.997">VPS de producción</text></g><g class="participant participant-tail" data-qualified-name="VPS" data-entity-uid="part5" id="part5-tail" data-source-line="7"><rect x="792.562" y="467.922" width="144.997" height="30.297" fill="#E2E2F0" style="stroke:#181818;stroke-width:0.5;" rx="2.5" ry="2.5"/><text x="799.562" y="487.917" fill="#000" font-size="14" textLength="130.997">VPS de producción</text></g><g><title>GitHub Actions</title><rect x="188.666" y="149.727" width="10" height="100.398" fill="#FFF" style="stroke:#181818;stroke-width:1;"/></g><g><title>GitHub Actions</title><rect x="596.686" y="279.258" width="10" height="164.664" fill="#FFF" style="stroke:#181818;stroke-width:1;"/></g><g><title>VPS de producci.n</title><rect x="860.06" y="308.391" width="10" height="135.531" fill="#FFF" style="stroke:#181818;stroke-width:1;"/></g><g class="message" data-entity-1="part1" data-entity-2="part2" id="msg1" data-source-line="9"><polygon points="176.666,145.727,186.666,149.727,176.666,153.727,180.666,149.727" fill="#181818" style="stroke:#181818;stroke-width:1;stroke-linejoin:miter;stroke-miterlimit:10;"/><line x1="55.455" y1="149.727" x2="182.666" y2="149.727" style="stroke:#181818;stroke-width:1;"/><text x="62.455" y="144.661" fill="#000" font-size="13" textLength="80.215">push a main</text></g><g class="message" data-entity-1="part2" data-entity-2="part3" id="msg2" data-source-line="11"><polygon points="483.989,174.859,493.989,178.859,483.989,182.859,487.989,178.859" fill="#181818" style="stroke:#181818;stroke-width:1;stroke-linejoin:miter;stroke-miterlimit:10;"/><line x1="198.666" y1="178.859" x2="489.989" y2="178.859" style="stroke:#181818;stroke-width:1;"/><text x="205.666" y="173.793" fill="#000" font-size="13" textLength="273.324">docker login (GITHUB_TOKEN automático)</text></g><g class="message" data-entity-1="part2" data-entity-2="part2" id="msg3" data-source-line="12"><line x1="198.666" y1="207.992" x2="240.666" y2="207.992" style="stroke:#181818;stroke-width:1;"/><line x1="240.666" y1="207.992" x2="240.666" y2="220.992" style="stroke:#181818;stroke-width:1;"/><line x1="199.666" y1="220.992" x2="240.666" y2="220.992" style="stroke:#181818;stroke-width:1;"/><polygon points="209.666,216.992,199.666,220.992,209.666,224.992,205.666,220.992" fill="#181818" style="stroke:#181818;stroke-width:1;stroke-linejoin:miter;stroke-miterlimit:10;"/><text x="205.666" y="202.926" fill="#000" font-size="13" textLength="163.909">docker build (6 servicios)</text></g><g class="message" data-entity-1="part2" data-entity-2="part3" id="msg4" data-source-line="13"><polygon points="483.989,246.125,493.989,250.125,483.989,254.125,487.989,250.125" fill="#181818" style="stroke:#181818;stroke-width:1;stroke-linejoin:miter;stroke-miterlimit:10;"/><line x1="193.666" y1="250.125" x2="489.989" y2="250.125" style="stroke:#181818;stroke-width:1;"/><text x="200.666" y="245.059" fill="#000" font-size="13" textLength="227.646">docker push :latest y :&lt;sha corto></text></g><g class="message" data-entity-1="part2" data-entity-2="part4" id="msg5" data-source-line="16"><polygon points="584.686,275.258,594.686,279.258,584.686,283.258,588.686,279.258" fill="#181818" style="stroke:#181818;stroke-width:1;stroke-linejoin:miter;stroke-miterlimit:10;"/><line x1="193.666" y1="279.258" x2="590.686" y2="279.258" style="stroke:#181818;stroke-width:1;"/><text x="200.666" y="274.192" fill="#000" font-size="13" textLength="145.082">needs: build-and-push</text></g><g class="message" data-entity-1="part4" data-entity-2="part5" id="msg6" data-source-line="18"><polygon points="848.06,304.391,858.06,308.391,848.06,312.391,852.06,308.391" fill="#181818" style="stroke:#181818;stroke-width:1;stroke-linejoin:miter;stroke-miterlimit:10;"/><line x1="606.686" y1="308.391" x2="854.06" y2="308.391" style="stroke:#181818;stroke-width:1;"/><text x="613.686" y="303.325" fill="#000" font-size="13" textLength="234.375">conexión SSH (appleboy/ssh-action)</text></g><g class="message" data-entity-1="part5" data-entity-2="part3" id="msg7" data-source-line="20"><polygon points="506.989,333.523,496.989,337.523,506.989,341.523,502.989,337.523" fill="#181818" style="stroke:#181818;stroke-width:1;stroke-linejoin:miter;stroke-miterlimit:10;"/><line x1="500.989" y1="337.523" x2="859.06" y2="337.523" style="stroke:#181818;stroke-width:1;"/><text x="512.989" y="332.458" fill="#000" font-size="13" textLength="134.945">docker compose pull</text></g><g class="message" data-entity-1="part3" data-entity-2="part5" id="msg8" data-source-line="21"><polygon points="848.06,362.656,858.06,366.656,848.06,370.656,852.06,366.656" fill="#181818" style="stroke:#181818;stroke-width:1;stroke-linejoin:miter;stroke-miterlimit:10;"/><line x1="495.989" y1="366.656" x2="854.06" y2="366.656" style="stroke:#181818;stroke-width:1;stroke-dasharray:2,2;"/><text x="502.989" y="361.59" fill="#000" font-size="13" textLength="149.056">imágenes actualizadas</text></g><g class="message" data-entity-1="part5" data-entity-2="part5" id="msg9" data-source-line="22"><line x1="870.06" y1="395.789" x2="912.06" y2="395.789" style="stroke:#181818;stroke-width:1;"/><line x1="912.06" y1="395.789" x2="912.06" y2="408.789" style="stroke:#181818;stroke-width:1;"/><line x1="871.06" y1="408.789" x2="912.06" y2="408.789" style="stroke:#181818;stroke-width:1;"/><polygon points="881.06,404.789,871.06,408.789,881.06,412.789,877.06,408.789" fill="#181818" style="stroke:#181818;stroke-width:1;stroke-linejoin:miter;stroke-miterlimit:10;"/><text x="877.06" y="390.723" fill="#000" font-size="13" textLength="144.796">docker compose up -d</text></g><g class="message" data-entity-1="part5" data-entity-2="part5" id="msg10" data-source-line="23"><line x1="870.06" y1="442.922" x2="912.06" y2="442.922" style="stroke:#181818;stroke-width:1;"/><line x1="912.06" y1="442.922" x2="912.06" y2="455.922" style="stroke:#181818;stroke-width:1;"/><line x1="865.06" y1="455.922" x2="912.06" y2="455.922" style="stroke:#181818;stroke-width:1;"/><polygon points="875.06,451.922,865.06,455.922,875.06,459.922,871.06,455.922" fill="#181818" style="stroke:#181818;stroke-width:1;stroke-linejoin:miter;stroke-miterlimit:10;"/><text x="877.06" y="437.856" fill="#000" font-size="13" textLength="144.454">docker image prune -f</text></g><?plantuml-src ZL91RXin3BplAuYSxCCsjnmMWO743cmZG1B4IKy52bfYRBMoA4XQ8yufZyW7-eO-mJ_fIohkEbXdaGAzh5OKPpWSCfba2SRpq_44_ho-WIRmTLm3mWQDouTYbyYHva0nNq8mv3G3EV21TQsKsVzsHO4gSO09HGo1hSMS3nXpO5ju3Caeuz4bE9cQDAkNSA6IOHU_kS4FNiAoDbQNw7GfjOSdWhoKM0yx6zzdn6gjmXV3RPh4_gE29czvrq8cpVz7qDUxHTDwrrAJciD5aNk0SjGAgexTaQRD5XCTn3PVIHLH5MXMFoc0vLKsSZ2TFymUBxy_t5vVtG3MYJVxNxa-3plOeS81rvW2WpE85BPPACVXFoeqaYgRXSG4EwZEurhc5XAF2aqzaHr7wqC5ZaZ7gZU4hhU3NUqXk6nA9Mj1p-8JB1Op6A3tbfQyEurnNM9Z_R2Z41l5uRvmnHlFKJREsa9Ue7pdDzcULTwx29cbHcjUK6DyPsbIUYIrXr9_bc0sk9BHrewWV3fsH7GTNTiM_m80?></g></svg>