<svg xmlns="http://www.w3.org/2000/svg" xmlns:xlink="http://www.w3.org/1999/xlink" version="1.1" data-diagram-type="DESCRIPTION" style="width:1008px;height:837px;" width="1008.333px" height="837.5px" viewBox="0 0 1008 837" zoomAndPan="magnify" preserveAspectRatio="none" contentStyleType="text/css"><?plantuml 1.2026.7beta5?><defs><linearGradient x1="50%" y1="0%" x2="50%" y2="100%" id="g1otmvonl6w58z0"><stop stop-color="#EDF0F2" offset="0%"/><stop stop-color="#E9ECEF" offset="100%"/></linearGradient><linearGradient x1="50%" y1="0%" x2="50%" y2="100%" id="g1otmvonl6w58z1"><stop stop-color="#59B6EC" offset="0%"/><stop stop-color="#2FA4E7" offset="100%"/></linearGradient></defs><g font-family="sans-serif" lengthAdjust="spacing"><g class="title" data-source-line="7"><rect x="20.833" y="20.833" width="965.249" height="36.751" fill="url(#g1otmvonl6w58z0)" style="stroke:#BABDBF;stroke-width:1.042;" rx="4.167" ry="4.167"/><text x="27.083" y="46.421" fill="#2FA4E7" font-size="20.833" textLength="952.749" font-weight="700" font-family="'Verdana'">Gobernanza de Implementación del Pipeline CI/CD — findParking (TOGAF Fase G)</text></g><!--cluster gates--><g class="cluster" data-qualified-name="gates" id="ent0002" data-source-line="11"><path d="M344.215,170.053 L538.03,170.053 A6.25,6.25 0 0 1 542.197,174.22 L549.488,190.854 L743.173,190.854 A4.167,4.167 0 0 1 747.34,195.021 L747.34,276.241 A4.167,4.167 0 0 1 743.173,280.408 L344.215,280.408 A4.167,4.167 0 0 1 340.048,276.241 L340.048,174.22 A4.167,4.167 0 0 1 344.215,170.053" style="stroke:#59B6EC;stroke-width:2.083;" fill="none"/><line x1="340.048" y1="190.854" x2="549.488" y2="190.854" style="stroke:#59B6EC;stroke-width:2.083;"/><text x="344.215" y="183.74" fill="#2FA4E7" font-size="12.5" textLength="195.898" font-weight="700" font-family="'Verdana'">Quality Gates (obligatorios)</text></g><!--cluster protection--><g class="cluster" data-qualified-name="protection" id="ent0005" data-source-line="16"><polygon points="411.923,325.199,422.34,314.783,668.173,314.783,668.173,434.47,657.757,444.887,411.923,444.887,411.923,325.199" fill="#FFF" style="stroke:#00008B;stroke-width:1.042;stroke-linejoin:miter;stroke-miterlimit:10;"/><line x1="657.757" y1="325.199" x2="668.173" y2="314.783" style="stroke:#00008B;stroke-width:1.042;"/><line x1="411.923" y1="325.199" x2="657.757" y2="325.199" style="stroke:#00008B;stroke-width:1.042;"/><line x1="657.757" y1="325.199" x2="657.757" y2="444.887" style="stroke:#00008B;stroke-width:1.042;"/><text x="447.066" y="339.927" fill="#343A40" font-size="12.5" textLength="177.631" font-weight="700" font-family="'Verdana'">Branch Protection (main)</text></g><!--cluster control--><g class="cluster" data-qualified-name="control" id="ent0007" data-source-line="20"><polygon points="316.09,512.595,326.507,502.178,551.507,502.178,551.507,623.991,541.09,634.408,316.09,634.408,316.09,512.595" fill="#FFF" style="stroke:#00008B;stroke-width:1.042;stroke-linejoin:miter;stroke-miterlimit:10;"/><line x1="541.09" y1="512.595" x2="551.507" y2="502.178" style="stroke:#00008B;stroke-width:1.042;"/><line x1="316.09" y1="512.595" x2="541.09" y2="512.595" style="stroke:#00008B;stroke-width:1.042;"/><line x1="541.09" y1="512.595" x2="541.09" y2="634.408" style="stroke:#00008B;stroke-width:1.042;"/><text x="351.424" y="527.323" fill="#343A40" font-size="12.5" textLength="156.415" font-weight="700" font-family="'Verdana'">Control de Despliegue</text></g><!--cluster prod--><g class="cluster" data-qualified-name="prod" id="ent0009" data-source-line="24"><polygon points="261.923,702.116,272.34,691.699,501.507,691.699,501.507,796.845,491.09,807.262,261.923,807.262,261.923,702.116" fill="#FFF" style="stroke:#00008B;stroke-width:1.042;stroke-linejoin:miter;stroke-miterlimit:10;"/><line x1="491.09" y1="702.116" x2="501.507" y2="691.699" style="stroke:#00008B;stroke-width:1.042;"/><line x1="261.923" y1="702.116" x2="491.09" y2="702.116" style="stroke:#00008B;stroke-width:1.042;"/><line x1="491.09" y1="702.116" x2="491.09" y2="807.262" style="stroke:#00008B;stroke-width:1.042;"/><text x="338.373" y="716.844" fill="#343A40" font-size="12.5" textLength="78.351" font-weight="700" font-family="'Verdana'">Producción</text></g><!--cluster skipped--><g class="cluster" data-qualified-name="skipped" id="ent0011" data-source-line="28"><polygon points="526.507,702.116,536.923,691.699,718.173,691.699,718.173,796.845,707.757,807.262,526.507,807.262,526.507,702.116" fill="#FFF" style="stroke:#00008B;stroke-width:1.042;stroke-linejoin:miter;stroke-miterlimit:10;"/><line x1="707.757" y1="702.116" x2="718.173" y2="691.699" style="stroke:#00008B;stroke-width:1.042;"/><line x1="526.507" y1="702.116" x2="707.757" y2="702.116" style="stroke:#00008B;stroke-width:1.042;"/><line x1="707.757" y1="702.116" x2="707.757" y2="807.262" style="stroke:#00008B;stroke-width:1.042;"/><text x="564.74" y="716.844" fill="#343A40" font-size="12.5" textLength="106.866" font-weight="700" font-family="'Verdana'">Deploy omitido</text></g><!--entity gate1--><g class="entity" data-qualified-name="gates.gate1" id="ent0003" data-source-line="12"><rect x="356.6" y="203.387" width="154.386" height="60.352" fill="url(#g1otmvonl6w58z1)" style="stroke:#2FA4E7;stroke-width:1.042;" rx="4.167" ry="4.167"/><rect x="490.153" y="208.595" width="15.625" height="10.417" fill="url(#g1otmvonl6w58z1)" style="stroke:#2FA4E7;stroke-width:1.042;"/><rect x="488.07" y="210.678" width="4.167" height="2.083" fill="url(#g1otmvonl6w58z1)" style="stroke:#2FA4E7;stroke-width:1.042;"/><rect x="488.07" y="214.845" width="4.167" height="2.083" fill="url(#g1otmvonl6w58z1)" style="stroke:#2FA4E7;stroke-width:1.042;"/><text x="372.225" y="235.823" fill="#FFF" font-size="12.5" textLength="112.72" font-family="'Verdana'">Gate 1: Unit Tests</text><text x="372.225" y="250.374" fill="#FFF" font-size="12.5" textLength="39.337" font-family="'Verdana'">pytest</text></g><!--entity gate2--><g class="entity" data-qualified-name="gates.gate2" id="ent0004" data-source-line="13"><rect x="547.007" y="203.387" width="184.001" height="60.352" fill="url(#g1otmvonl6w58z1)" style="stroke:#2FA4E7;stroke-width:1.042;" rx="4.167" ry="4.167"/><rect x="710.174" y="208.595" width="15.625" height="10.417" fill="url(#g1otmvonl6w58z1)" style="stroke:#2FA4E7;stroke-width:1.042;"/><rect x="708.091" y="210.678" width="4.167" height="2.083" fill="url(#g1otmvonl6w58z1)" style="stroke:#2FA4E7;stroke-width:1.042;"/><rect x="708.091" y="214.845" width="4.167" height="2.083" fill="url(#g1otmvonl6w58z1)" style="stroke:#2FA4E7;stroke-width:1.042;"/><text x="562.632" y="235.823" fill="#FFF" font-size="12.5" textLength="142.334" font-family="'Verdana'">Gate 2: Lint &amp; Security</text><text x="562.632" y="250.374" fill="#FFF" font-size="12.5" textLength="96.027" font-family="'Verdana'">ruff + pip-audit</text></g><!--entity rule--><g class="entity" data-qualified-name="protection.rule" id="ent0006" data-source-line="17"><rect x="437.902" y="353.324" width="204.295" height="74.902" fill="url(#g1otmvonl6w58z1)" style="stroke:#2FA4E7;stroke-width:1.042;" rx="4.167" ry="4.167"/><rect x="621.364" y="358.533" width="15.625" height="10.417" fill="url(#g1otmvonl6w58z1)" style="stroke:#2FA4E7;stroke-width:1.042;"/><rect x="619.281" y="360.616" width="4.167" height="2.083" fill="url(#g1otmvonl6w58z1)" style="stroke:#2FA4E7;stroke-width:1.042;"/><rect x="619.281" y="364.783" width="4.167" height="2.083" fill="url(#g1otmvonl6w58z1)" style="stroke:#2FA4E7;stroke-width:1.042;"/><text x="453.527" y="385.76" fill="#FFF" font-size="12.5" textLength="151.154" font-family="'Verdana'">required_status_checks:</text><text x="453.527" y="400.311" fill="#FFF" font-size="12.5" textLength="162.628" font-family="'Verdana'">ambos gates deben pasar</text><text x="453.527" y="414.862" fill="#FFF" font-size="12.5" textLength="126.117" font-family="'Verdana'">para poder mergear</text></g><!--entity flag--><g class="entity" data-qualified-name="control.flag" id="ent0008" data-source-line="21"><rect x="345.246" y="549.053" width="156.278" height="60.352" fill="url(#g1otmvonl6w58z1)" style="stroke:#2FA4E7;stroke-width:1.042;" rx="4.167" ry="4.167"/><rect x="480.691" y="554.262" width="15.625" height="10.417" fill="url(#g1otmvonl6w58z1)" style="stroke:#2FA4E7;stroke-width:1.042;"/><rect x="478.608" y="556.345" width="4.167" height="2.083" fill="url(#g1otmvonl6w58z1)" style="stroke:#2FA4E7;stroke-width:1.042;"/><rect x="478.608" y="560.512" width="4.167" height="2.083" fill="url(#g1otmvonl6w58z1)" style="stroke:#2FA4E7;stroke-width:1.042;"/><text x="360.871" y="581.49" fill="#FFF" font-size="12.5" textLength="103.564" font-family="'Verdana'">Variable de repo</text><text x="360.871" y="596.04" fill="#FFF" font-size="12.5" textLength="114.612" font-family="'Verdana'">DEPLOY_ENABLED</text></g><!--entity deploy--><g class="entity" data-qualified-name="prod.deploy" id="ent0010" data-source-line="25"><rect x="278.277" y="730.241" width="206.883" height="60.352" fill="url(#g1otmvonl6w58z1)" style="stroke:#2FA4E7;stroke-width:1.042;" rx="4.167" ry="4.167"/><rect x="464.327" y="735.449" width="15.625" height="10.417" fill="url(#g1otmvonl6w58z1)" style="stroke:#2FA4E7;stroke-width:1.042;"/><rect x="462.243" y="737.533" width="4.167" height="2.083" fill="url(#g1otmvonl6w58z1)" style="stroke:#2FA4E7;stroke-width:1.042;"/><rect x="462.243" y="741.699" width="4.167" height="2.083" fill="url(#g1otmvonl6w58z1)" style="stroke:#2FA4E7;stroke-width:1.042;"/><text x="293.902" y="762.677" fill="#FFF" font-size="12.5" textLength="123.45" font-family="'Verdana'">Deploy real vía SSH</text><text x="293.902" y="777.228" fill="#FFF" font-size="12.5" textLength="165.216" font-family="'Verdana'">(environment: production)</text></g><!--entity skip--><g class="entity" data-qualified-name="skipped.skip" id="ent0012" data-source-line="29"><rect x="542.673" y="730.241" width="159.342" height="60.352" fill="url(#g1otmvonl6w58z1)" style="stroke:#2FA4E7;stroke-width:1.042;" rx="4.167" ry="4.167"/><rect x="681.182" y="735.449" width="15.625" height="10.417" fill="url(#g1otmvonl6w58z1)" style="stroke:#2FA4E7;stroke-width:1.042;"/><rect x="679.099" y="737.533" width="4.167" height="2.083" fill="url(#g1otmvonl6w58z1)" style="stroke:#2FA4E7;stroke-width:1.042;"/><rect x="679.099" y="741.699" width="4.167" height="2.083" fill="url(#g1otmvonl6w58z1)" style="stroke:#2FA4E7;stroke-width:1.042;"/><text x="558.298" y="762.677" fill="#FFF" font-size="12.5" textLength="117.676" font-family="'Verdana'">Job deploy se salta</text><text x="558.298" y="777.228" fill="#FFF" font-size="12.5" textLength="55.963" font-family="'Verdana'">(no falla)</text></g><!--entity trigger--><g class="entity" data-qualified-name="trigger" id="ent0001" data-source-line="9"><polygon points="455.163,85.71,465.579,75.293,616.599,75.293,616.599,110.677,606.182,121.094,455.163,121.094,455.163,85.71" fill="#FFF" style="stroke:#00008B;stroke-width:1.042;stroke-linejoin:miter;stroke-miterlimit:10;"/><line x1="606.182" y1="85.71" x2="616.599" y2="75.293" style="stroke:#00008B;stroke-width:1.042;"/><line x1="455.163" y1="85.71" x2="606.182" y2="85.71" style="stroke:#00008B;stroke-width:1.042;"/><line x1="606.182" y1="85.71" x2="606.182" y2="121.094" style="stroke:#00008B;stroke-width:1.042;"/><text x="470.788" y="107.729" fill="#343A40" font-size="12.5" textLength="119.769" font-family="'Verdana'">Push / Pull Request</text></g><!--link trigger to gate1--><g class="link" data-entity-1="ent0001" data-entity-2="ent0003" id="lnk13" data-source-line="32" data-link-type="dependency"><path d="M518.798,121.543 C501.652,143.928 478.329,174.376 459.485,198.991" style="stroke:#2FA4E7;stroke-width:3.125;" fill="none" id="trigger-to-gate1"/><polygon points="456.319,203.126,465.326,198.215,459.485,198.991,458.709,193.149,456.319,203.126" fill="#2FA4E7" style="stroke:#2FA4E7;stroke-width:3.125;stroke-linejoin:miter;stroke-miterlimit:10;"/></g><!--link trigger to gate2--><g class="link" data-entity-1="ent0001" data-entity-2="ent0004" id="lnk14" data-source-line="33" data-link-type="dependency"><path d="M553.142,121.543 C570.454,143.928 594.04,174.391 613.071,199.006" style="stroke:#2FA4E7;stroke-width:3.125;" fill="none" id="trigger-to-gate2"/><polygon points="616.257,203.126,613.818,193.161,613.071,199.006,607.226,198.258,616.257,203.126" fill="#2FA4E7" style="stroke:#2FA4E7;stroke-width:3.125;stroke-linejoin:miter;stroke-miterlimit:10;"/></g><!--link gate1 to rule--><g class="link" data-entity-1="ent0003" data-entity-2="ent0006" id="lnk15" data-source-line="34" data-link-type="dependency"><path d="M454.038,264.147 C471.309,289.376 493.302,321.486 511.886,348.611" style="stroke:#2FA4E7;stroke-width:3.125;" fill="none" id="gate1-to-rule"/><polygon points="514.829,352.908,512.968,342.819,511.886,348.611,506.094,347.528,514.829,352.908" fill="#2FA4E7" style="stroke:#2FA4E7;stroke-width:3.125;stroke-linejoin:miter;stroke-miterlimit:10;"/></g><!--link gate2 to rule--><g class="link" data-entity-1="ent0004" data-entity-2="ent0006" id="lnk16" data-source-line="35" data-link-type="dependency"><path d="M620.163,264.147 C604.069,289.376 583.641,321.391 566.339,348.516" style="stroke:#2FA4E7;stroke-width:3.125;" fill="none" id="gate2-to-rule"/><polygon points="563.538,352.908,572.092,347.244,566.339,348.516,565.067,342.763,563.538,352.908" fill="#2FA4E7" style="stroke:#2FA4E7;stroke-width:3.125;stroke-linejoin:miter;stroke-miterlimit:10;"/></g><!--link rule to control--><g class="link" data-entity-1="ent0006" data-entity-2="ent0007" id="lnk17" data-source-line="36" data-link-type="dependency"><path d="M540.048,428.637 C540.048,442.004 540.048,457.85 540.048,474.144 C540.048,482.292 540.048,490.551 540.048,498.67 C540.048,499.684 540.048,495.489 540.048,496.498" style="stroke:#2FA4E7;stroke-width:3.125;" fill="none" id="rule-to-control"/><polygon points="540.048,501.707,544.215,492.332,540.048,496.498,535.882,492.332,540.048,501.707" fill="#2FA4E7" style="stroke:#2FA4E7;stroke-width:3.125;stroke-linejoin:miter;stroke-miterlimit:10;"/><text x="541.09" y="474.198" fill="#343A40" font-size="12.5" textLength="87.469" font-family="'Verdana'">merge a main</text></g><!--link control to deploy--><g class="link" data-entity-1="ent0007" data-entity-2="ent0010" id="lnk18" data-source-line="37" data-link-type="dependency"><path d="M531.072,634.486 C531.017,634.598 530.962,634.71 530.906,634.821 C530.461,635.715 529.994,636.596 529.506,637.463 C528.529,639.198 527.466,640.877 526.309,642.481 C523.994,645.69 521.302,648.602 518.173,651.074 C496.329,668.335 413.319,640.199 393.173,659.408 C374.59,677.126 372.997,702.283 375.497,724.897" style="stroke:#2FA4E7;stroke-width:3.125;" fill="none" id="control-to-deploy"/><polygon points="376.069,730.074,379.18,720.298,375.497,724.897,370.898,721.214,376.069,730.074" fill="#2FA4E7" style="stroke:#2FA4E7;stroke-width:3.125;stroke-linejoin:miter;stroke-miterlimit:10;"/><text x="394.215" y="672.052" fill="#343A40" font-size="12.5" textLength="176.031" font-family="'Verdana'">DEPLOY_ENABLED == 'true'</text></g><!--link control to skip--><g class="link" data-entity-1="ent0007" data-entity-2="ent0012" id="lnk19" data-source-line="38" data-link-type="dependency"><path d="M551.728,605.698 C551.897,606.066 552.068,606.437 552.239,606.811 C553.613,609.801 555.075,612.982 556.608,616.32 C559.675,622.994 563.029,630.296 566.548,637.954 C580.624,668.59 595.155,700.216 606.593,725.112" style="stroke:#2FA4E7;stroke-width:3.125;" fill="none" id="control-to-skip"/><polygon points="608.767,729.845,608.639,719.587,606.593,725.112,601.067,723.066,608.767,729.845" fill="#2FA4E7" style="stroke:#2FA4E7;stroke-width:3.125;stroke-linejoin:miter;stroke-miterlimit:10;"/><text x="581.715" y="672.052" fill="#343A40" font-size="12.5" textLength="170.569" font-family="'Verdana'">DEPLOY_ENABLED != 'true'</text></g><?plantuml-src PL9BRXD14DtFAIfP45l8YkAbfI35dvWWYnWSG0WZgpnJ7hVSKzrKTqTo41A7u1giE49kmadewV5W1JOjzQjNhrvzJloMAeAS96X2pjnEiKN12jWK15ypW27ckr9Cu69aj17ui5MUQjn8GT9WOvJTK0VAlcMPLruJJCsQX94V4ABEJMLrhCCUS_NuYoEaOQuiQSK4evlpqHX-V_y16yN5F4efBg5pTpkzkePhT56icsN9p-ayk2sSmpne3M_fIo3dJm4TU55bIP9bDhh5CZBV1DJAxs6AdXnqp5gh4hqHPLmtfPGfK7VugUR0nG3UiV9m5pNTakq-XltdbddnbzSVm4onXsUme3n8hB5a2PiDF0UhR0z3eOvf_NeYZVMX8ETRc8lnb7jb63eLAcxCs2EQ74diJGaLA-VH1xVAjvJlt639MArDwxsWDJ5OT2ZBj3MmiP90HL8IIZ9Hx_NeOMJOYz7rIiRah5PK1ae6yaCaLN-Fed0TjnXvGjOiUJoPpsu_hYQlhuQpoJWfRpIMH-NOLX7ojDsseQ8H6vFLPXzrKCFzuq-4nUBbaZl4zqeCrqSnIEoGskycxIBb7DKF6gPINXKc5OYNQYqTQhmowqCEn7Dng3t64cnWWrfZeradfFjiJWLwlHU7pVwBzBE4ft-QNmAFt_f9ltPeWsRaW51lD6lXcd9mDO2d4uJBIpZp4kZi2Rls-3_tfEN-0G00?></g></svg>